<?xml version="1.0" encoding="utf-8"?>
<!-- Generator: Adobe Illustrator 25.4.1, SVG Export Plug-In . SVG Version: 6.00 Build 0)  -->
<svg version="1.1" id="Layer_1" xmlns="http://www.w3.org/2000/svg" xmlns:xlink="http://www.w3.org/1999/xlink" x="0px" y="0px"
	 viewBox="0 0 2000 2000" style="enable-background:new 0 0 2000 2000;" xml:space="preserve">
<style type="text/css">
	.st0{fill:#840014;}
</style>
<g>
	<path class="st0" d="M1934.4,943.5c52.8,706.6-747.6,1229.2-1368.4,878.3C-213.8,1423.1-23.7,221.7,839.3,80.3
		C1376.4-25.9,1906.3,398.6,1934.4,943.5z M883,1517c175.3-173.7,350.2-347,525.6-520.8C1234,823.1,1059.2,649.9,885.9,478.1
		c-26.6,26.9-54.6,55.2-86.6,87.5C944,708.9,1089.9,853.4,1239,1001c-147.2,145.7-292.8,290-437.6,433.4
		C830.8,1464.2,858.9,1492.6,883,1517z"/>
</g>
</svg>
